<svg xmlns="http://www.w3.org/2000/svg" viewBox="0 0 214.855 250.272"><g id="Layer_2" data-name="Layer 2"><g id="Layer_1-2" data-name="Layer 1"><path d="M206.4,83.188c.59,1.96,1.275,3.9,1.754,5.886,2.073,8.6,4.088,17.217,6.119,25.829a18.857,18.857,0,0,1-3.283,16.211c-2.563,3.464-3.258,7.315-3.11,11.474.117,3.3.3,6.608.113,9.894a79.1,79.1,0,0,1-1.213,8.629c-4.57,27.3-18.106,49.366-39.45,66.664a100.457,100.457,0,0,1-44.312,20.566,102.442,102.442,0,0,1-33.474,1.02c-10.093-1.327-19.96-3.612-29.165-8.024a189.84,189.84,0,0,1-18.127-9.827c-7.047-4.377-12.9-10.265-18.216-16.59C12.4,201.092,5.3,185.1,1.927,167.41a107.922,107.922,0,0,1,1.142-45.843c2.422-10.1,6.952-19.283,12.471-28.013,4.438-7.019,9.046-13.931,14.9-19.863A105.568,105.568,0,0,1,73.287,47.44a106.24,106.24,0,0,1,30.787-5.334,38.344,38.344,0,0,0,4.5-.4,11.5,11.5,0,0,0,7.046-3.58c4.534-4.94,8.122-10.431,9.132-17.21a42.248,42.248,0,0,0,.109-6.613,6.334,6.334,0,0,0-.421-1.558h-.385c-.112.41-.257.814-.331,1.23a66.829,66.829,0,0,1-5.038,16.58,29.06,29.06,0,0,1-1.792,2.884,13.833,13.833,0,0,1-1.125-1.5,28.106,28.106,0,0,1-3.6-11.068c-.6-8.16,2.57-14.592,9.237-19.27,3.328-2.335,3.45-2.3,5.477,1.23a29.536,29.536,0,0,1,3.525,21.386,21.261,21.261,0,0,1-2.474,5.658c-1.43,2.586-3.069,5.055-4.82,7.9,2.033-.448,3.744-.793,5.438-1.206a39.6,39.6,0,0,1,16.688-.072,11.307,11.307,0,0,1,3.162,1.18c1.664.878,3.22,1.96,4.876,2.855,4.351,2.351,6.824,6.232,8.739,10.577.655,1.486.575,1.932-1.012,2.182-3.427.539-6.888.943-10.35,1.152-6.643.4-12.082-2.348-16.739-6.864a18.463,18.463,0,0,1-4.162-6.221,12.684,12.684,0,0,1,2.536.023c5.547,1.262,11.079,2.587,16.618,3.885a3.476,3.476,0,0,0,1.641.046,34.723,34.723,0,0,0-17.473-6.276,47.151,47.151,0,0,0-17.795,2.364l-.02.662c1.012.19,2.027.366,3.036.572,6.891,1.4,12.924,4.272,16.587,10.6a22.778,22.778,0,0,1,3.073,11.769c-.024,2.233-.539,2.8-2.733,2.419-8.688-1.51-15.512-5.648-19.049-14.123a29.724,29.724,0,0,1-1.409-4.565,1.911,1.911,0,0,1,.381-1.643c.316-.237,1.162-.011,1.641.253a75.521,75.521,0,0,1,13.449,9.217,14.918,14.918,0,0,0-1.063-1.943c-4.335-5.767-9.659-9.651-17.306-9.556a104.28,104.28,0,0,0-29.185,4.766C63.037,55.822,46.8,67.093,33.363,82.462A102.762,102.762,0,0,0,9.982,129.228c-4.736,22.034-1.544,43.028,8.94,62.868,9.021,17.074,22.772,29.461,39.55,38.663A92.185,92.185,0,0,0,89.766,241.3a86.99,86.99,0,0,0,40.313-3.542,102.23,102.23,0,0,0,48.281-33.357,93.763,93.763,0,0,0,20.416-46.81,72.554,72.554,0,0,0,.647-11.812c-.119-4.584-2.591-8.123-5.923-11.173a54.812,54.812,0,0,1-6.128-6.412c-2.431-3.09-3.3-6.843-3.5-10.722q-.829-16.019-1.591-32.04a3.609,3.609,0,0,1,.22-1.426c2.689,11.283,4.272,22.821,8.034,33.874.177-12.18-1.743-24.2-2.577-36.284l.409-.089c.426,1.817.9,3.624,1.27,5.452,1.9,9.462,3.768,18.93,5.671,28.39a19.517,19.517,0,0,0,.759,2.3l.611-.054a10.986,10.986,0,0,0,.171-1.9c-.419-5.21-.893-10.415-1.316-15.625-.489-6.009-.944-12.02-1.409-18.031a.994.994,0,0,1,.177-.653c2.748,11.622,3.786,23.6,7.634,35,.642-12.21-1.245-24.248-2.419-36.329l.489-.069c.5,2.361,1.04,4.715,1.5,7.084,1.707,8.781,3.376,17.569,5.1,26.347a18.613,18.613,0,0,0,.936,2.643l.617-.111c.039-1.7.215-3.411.092-5.1-.656-8.972-1.388-17.939-2.091-26.908-.018-.229,0-.461,0-.691Z" fill="#faaf29"/><path d="M176.993,191.54c-.609,1.138-1.007,2.036-1.537,2.848-9.182,14.06-20.659,25.678-35.853,33.223a86.664,86.664,0,0,1-44.037,9.165c-10.784-.6-21.283-2.71-31.02-7.366-10.306-4.928-20.086-10.773-27.77-19.564A86.581,86.581,0,0,1,16.006,165.7c-2.454-15.381-1.283-30.524,4.466-45.037,8.913-22.5,24.38-39.015,46.448-49.179,12.969-5.973,26.67-8.167,40.859-7.728a7.074,7.074,0,0,1,4.389,1.344l.006.474a25.111,25.111,0,0,1-3.206.51,99.644,99.644,0,0,0-25.143,4.28,82.829,82.829,0,0,0-33.279,19.09c-15.06,14-24.927,30.958-28,51.346-3.441,22.861,2.42,43.407,17.491,61.035,13.342,15.606,30.345,24.791,50.7,27.627,14.312,2,27.919-.48,41.016-6.484a87.213,87.213,0,0,0,35.7-29.785c1.793-2.562,3.491-3.537,6.38-2.467C174.753,191.06,175.73,191.219,176.993,191.54Z" fill="#fff"/><path d="M129.115,147.159c.217-1.189.423-2.381.653-3.568.94-4.849,3.49-8.509,8.056-10.554,4.129-1.848,9.382.868,9.77,5.041a7.557,7.557,0,0,1-.443,3.177c-2.131,5.852-6.249,9.264-12.525,9.913-.187.019-.377.02-.563.048-3.842.57-7.395.3-9.762-3.646a9.543,9.543,0,0,1-9.444,3.177c-3.86-.7-5.415-3.719-6.921-7.074-1.263.607-2.466,1.11-3.6,1.744-2.176,1.223-4.286,2.565-6.469,3.774-3.272,1.814-6.867,1.912-10.454,1.621-1.788-.145-2.8-1.65-3.643-3.082a23.567,23.567,0,0,1-1.228-2.92c-.443.431-.855.834-1.27,1.234a6.216,6.216,0,0,1-7.407,1.208c-3.332-1.581-4.538-4.66-2.908-7.978a27.638,27.638,0,0,1,3.356-5.338,7.475,7.475,0,0,1,8.132-2.569,2.981,2.981,0,0,1,2.468,2.425c.452,2.681.81,5.378,1.181,8.073.089.65.019,1.324.124,1.971.446,2.759,1.619,3.589,4.379,3.307a18.775,18.775,0,0,0,7.8-2.673c3.058-1.812,6.3-3.31,9.592-5.008-3.328-1.715-6.67-3.467-10.044-5.157a2.218,2.218,0,0,0-2.791.715,11.4,11.4,0,0,1-1.593,1.777,2.144,2.144,0,0,1-1.753.381c-.454-.209-.641-1.017-.918-1.576-.054-.107.01-.277.03-.416.368-2.638,3.87-5.365,6.363-4.577a89.178,89.178,0,0,1,8.575,3.522c2.1.913,4.185,1.866,6.219,2.915a6.919,6.919,0,0,1,2.5,1.882c.935,1.313.291,2.672-1.253,3.188-.527.177-1.055.35-1.571.521a5.54,5.54,0,0,0,4.762,4.579,6.472,6.472,0,0,0,6.744-4.08c.468-1.327.707-2.734,1.134-4.078a4.911,4.911,0,0,1,1-1.987,2.465,2.465,0,0,1,1.821-.624c.327.041.749.92.775,1.438.06,1.216-.1,2.441-.158,3.663a23.751,23.751,0,0,0-.1,3.522,8.805,8.805,0,0,0,.876,2.239Zm3.574.432c4.3-.652,7.61-2.313,9.861-5.686a6.189,6.189,0,0,0,.91-2.76c.182-1.914-.893-2.951-2.8-2.686a7.819,7.819,0,0,0-3.006,1.062C134.043,139.787,133.4,143.541,132.689,147.591ZM82.04,138.208c-.025-.262-.044-.639-.1-1.01-.385-2.554-1.69-3.245-3.593-1.567a21.464,21.464,0,0,0-3.89,4.906c-1.181,1.926-.175,3.476,2.108,3.636C79.175,144.356,82.054,141.28,82.04,138.208Z" fill="#faaf29"/><path d="M88.582,122.1c-10.1-.177-18.545,4.229-27.014,8.61,3.224-2.925,6.554-5.746,10.605-7.329,4.011-1.567,8.2-2.671,12.509-4.039-.527-1.11-1.132-2.514-1.87-3.843-.179-.324-.775-.5-1.211-.584a16.8,16.8,0,0,0-9.972,1.121c-3.965,1.709-7.752,3.829-11.615,5.775a1.775,1.775,0,0,1-.625.255A27.687,27.687,0,0,1,69.4,114.554a44.426,44.426,0,0,1,5.785-1.789c.736-.2.958-.457.944-1.234a9.879,9.879,0,0,0-1.6-5.769c2.1,1.476,2.554,3.769,2.909,6.485a8.088,8.088,0,0,0,1.671-1.146c1.542-1.886,1.5-4.079,1.056-6.32-.066-.339-.117-.682-.175-1.023l.529-.1c.438,2.484.876,4.968,1.309,7.428,2.884-2.754,2.419-8.677-.895-11.451-2.552-2.135-5.332-2.16-8.209-.881-3.969,1.765-6.717,4.935-9.265,8.3-2.946,3.895-6.09,7.571-10.571,9.809-.211.1-.423.209-.642.294-.078.03-.178,0,.025,0,2.049-2.338,4.312-4.737,6.351-7.315a43.891,43.891,0,0,0,3.3-5.261c2.319-3.985,5.21-7.375,9.427-9.472,5.237-2.6,11.481-1.187,14.481,3.365a9.407,9.407,0,0,1,1.235,7.343c-.512,2.373-1.483,4.644-2.167,6.985a2.967,2.967,0,0,0,.02,1.907c.926,2.008,2,3.947,3.013,5.917C88.136,121.043,88.3,121.47,88.582,122.1Z" fill="#faaf29"/><path d="M141.338,190.307l-2.29-.217.008-.265c2.307,0,4.622-.108,6.92.043a14.909,14.909,0,0,1,3.811.954c.446.154.743.738,1.108,1.125-.386.361-.714.924-1.166,1.051-3.214.9-6.417,1.913-9.691,2.527-11.333,2.124-22.67,4.256-34.053,6.086a150.771,150.771,0,0,1-27.869,2.121c-2.861-.074-5.714-.527-8.565-.854a10.862,10.862,0,0,1-1.793-.511c25.076-.6,49.527-5.017,73.663-11.438Z" fill="#f8b027"/><path d="M75.186,186.917c.04-.2.029-.421.1-.449,1.693-.688,1.542-2.18,1.521-3.566-.085-5.37-.212-10.74-.313-16.11-.022-1.176-.334-2.026-1.749-2.044-.283,0-.561-.437-.841-.673.283-.164.56-.459.848-.471,3.2-.134,6.4-.23,9.6-.323a15.225,15.225,0,0,1,1.554.053c2.673.195,4.356,1.408,4.775,3.431a5.609,5.609,0,0,1-2.781,6.12c-.434.239-.894.43-1.471.7a2.539,2.539,0,0,0,.5.2c2.376.251,4.375,1.195,5.062,3.62a6.623,6.623,0,0,1-2.01,6.96,8.786,8.786,0,0,1-5.7,2.514C81.281,187.013,78.281,186.917,75.186,186.917Zm4.935-1.459c1.072,0,1.9.012,2.735,0,4.441-.076,6.667-3.016,5.625-7.354a3.56,3.56,0,0,0-2.707-2.944c-1.847-.378-3.76-.431-5.653-.626Zm-.348-11.877a39.676,39.676,0,0,0,5.342-.979c1.824-.6,2.452-2.26,2.169-4.692a3.216,3.216,0,0,0-3.036-3.007,14.825,14.825,0,0,0-3.51,0,1.447,1.447,0,0,0-.922,1.052C79.731,168.343,79.773,170.73,79.773,173.581Z" fill="#fff"/><path d="M95.929,174.638c-.178-7.262,4.675-12.26,12.067-12.43,7.856-.18,12.7,4.042,12.882,11.24.2,7.719-5.11,13.25-12.9,13.437C100.918,187.054,96.112,182.169,95.929,174.638Zm21.438.377.195-.075a50.776,50.776,0,0,0-1.374-6.013c-2.432-6.851-11.356-6.165-14.352-2.471-2.751,3.393-3.221,9.985-.755,14.314a8.523,8.523,0,0,0,9.191,4.353c3.452-.5,5.876-2.909,6.68-6.751C117.182,177.272,117.233,176.135,117.367,175.015Z" fill="#fff"/><path d="M133.8,171.442c1.613-3.248,4.175-5.621,4.648-9.544,1.518,0,3.232-.011,4.945.017a.625.625,0,0,1,.463.387c.028.17-.152.531-.277.548-3.527.479-4.638,3.569-6.4,5.929-.9,1.2-2.3,2.5-2.311,3.763s1.411,2.552,2.217,3.821q1.517,2.387,3.052,4.759a6.254,6.254,0,0,0,4.285,2.964c.4.074.737.516,1.1.788a4.159,4.159,0,0,1-1.262.525c-1.457.085-2.923.022-4.38.1a1.483,1.483,0,0,1-1.55-.892c-1.814-3.082-3.7-6.12-5.724-9.443-2.016,3.553-4.551,6.522-5.739,10.578-1.244.065-2.92.167-4.6.216-.18.005-.518-.3-.518-.457,0-.2.256-.565.43-.582,2.62-.264,3.746-2.337,5.04-4.165,1.387-1.961,2.712-3.968,4-6a1.555,1.555,0,0,0,.116-1.344q-2.481-4.028-5.113-7.962a3.759,3.759,0,0,0-3.036-1.829c-.31-.015-.6-.418-.9-.643a2.927,2.927,0,0,1,.871-.5c1.021-.168,2.071-.181,3.081-.391a1.9,1.9,0,0,1,2.186.867q2.019,3.065,4,6.149C132.854,169.772,133.23,170.47,133.8,171.442Z" fill="#fff"/><path d="M120.94,106.938l.843,1.525-8.446,1.991c-.222-3.36-.7-6.579-2.694-9.552l5.425-1.444.5,1.8-3.444-.335.868,3.588,2.073-1.46.556,2.244-2.511-.308c.41,1.511.724,2.671,1.034,3.815,1.681.1,2.717-.572,3.262-2.543l.524,2.116c1.511-1.048,2.87-8.206,1.9-9.71,2.059-.7,2.125-.638,2.936,1.217,1.246,2.676,2.178,5.584,4.393,7.643,1.805-1.436,2.008-6.852.5-9.556h2.974c-.678,3.2-.525,5.66-.508,9.236L134.4,105.7c.422,1.822.24,2.067-1.663,2.08a74.057,74.057,0,0,0-8.61.391c1.494-1.659.142-3.343-1.529-3.875C124.687,106.122,123.578,107.763,120.94,106.938Zm1.629-5.837-.3.08-.384,2.464,1.611-.3Z" fill="#fff"/><path d="M69.979,122.584c-5.409,1.585-9.481,4.963-12.971,9.593-.773-1.624-1.467-2.978-2.063-4.375-.355-.832-.753-1.065-1.711-.875a13.927,13.927,0,0,1-4.186.279,6.286,6.286,0,0,1-5.773-5.333c-.731-3.222.1-5.953,2.711-7.561a41.279,41.279,0,0,1,5.6-2.436l.232.44a3.142,3.142,0,0,1-.408.369,6.22,6.22,0,0,0-.625.322,36.765,36.765,0,0,0-4.768,4.067c-1.439,1.68-1.258,3.793-.17,5.7a4.331,4.331,0,0,0,4.711,2.123c1.661-.232,3.286-.72,5.125-1.139l2.057,4.459C61.556,125.5,65.213,122.818,69.979,122.584Z" fill="#faaf29"/><path d="M130.467,116.089c1.938-10.5,11.155-5.187,7.629,2.707-2.022,4.518-7.889,1.807-7.285-2.59Zm4.82-.364-.513-.2c.477-2.817,3.636-.175,1.571,1.252-4.163,2.11-3.772-6.181.474-4.378-3.941-4.508-5.839,6.843-2.14,7.587,3.365-.268,3.858-5.639.722-6.74-.517,1.1-1.567,2.031-.233,3.024.287-.459,1.341-.772.695-1.31Z" fill="#fff"/><path d="M141.993,111.372c2.362.88,5.126,1.325,6.072,4.388.917,2.972-1.494,6.88-4.375,6.992-1.515-.183-3.4-1.026-4.816-1.329A20.053,20.053,0,0,0,141.993,111.372Zm1.215,7.529.232.332-.466.831c1.5.489,1.206-.883.74-1.424a1.639,1.639,0,0,0-1.5.112c-1.863,1.5.76,4.345,2.372,2.583,2.418-1.9,2.734-7.22-.712-8l-1.207,3.842c3.591.17,3.19,5.33-.081,3.659C141.955,120.019,142.008,119.172,143.208,118.9Z" fill="#fff"/><path d="M129.8,116.286c-.627,4.344-4.412,7.576-7.662,2.721-1.567-2.756-1.167-8.141,2.7-8.554,2.628-.111,4.8,3.263,4.617,5.768Zm-2.326-1.578c-1.492-3.024-3.854-.111-1.91,1.681.448-.508,1.4-.613.777-1.435l-.592.942-.362-.06c-.313-1.611.941-1.78,2.127-1.164.356,3.462-3.605,3.367-3.78.482a2.817,2.817,0,0,1,2.7-3c-5.915-3.832-2.79,12.912,1.5,6.584A4.147,4.147,0,0,0,127.473,114.708Z" fill="#fff"/><path d="M146.805,109.791c2.895-1.206,2.727-6.563-.653-5.133-1.172.9,1.293,2.887,1.206.8l-.57.647-.363-.09c.086-.4.107-1.111.271-1.145.419-.089,1.187-.006,1.3.241.775,2.212-1.187,1.74-2.938,2.2l.278,2.223-2.8-.739a20.275,20.275,0,0,0,2.39-10.107l2.842.728-1.95,3.659,3.874.923.346-3.777,2.606.57c-1.955,3.015-2.4,6.3-2.9,9.745Z" fill="#fff"/><path d="M101.55,103.911l2.654-1.045c.227,1.468.445,2.874.629,4.068l3.685-1.421c-.56-.933-1.238-2.065-1.99-3.32l2.467-.987c.213,3.582,1.762,6.546,3.261,9.617l-2.092.784c-.946-7.195-5.245-4.76-3.911-2.56.716.4,1.6.191,1.62-.862l-.369-.123-.354,1.261-.66-1.408c.424-.191,1.016-.653,1.238-.516.42.259.985,1.072.86,1.284a11.352,11.352,0,0,1-1.719,1.9l-.578-.015,1.836,1.962-2.748,1.008A20.307,20.307,0,0,0,101.55,103.911Z" fill="#fff"/><path d="M138.771,101.672c-4.637,3.512-7.174-6.056,4.591-3.018l-.106,1.7-2.742-1.378c.163,3.4-1.209,6.268-.3,9.363l-3.23-.238C138.833,106.132,138.076,103.743,138.771,101.672Zm.25-2.336c-4.569-1.955-2.841,4.85-1.136,1.077l-.38-.2-.5.778-.378-.061.14-1.245,2.167.533Z" fill="#fff"/><path d="M159.3,104.578c-.05,1.921-2.152,1.652-1.955-.15.541-2.244,4.577-1.066,3.545,1.2-1.555,3.357-6.167,1.652-5.121,7.113a20.8,20.8,0,0,1-3.223-1.163c2.631-1.619,3.436-5.048,1.446-10.279l3.531,1.341c-1.98,1.365-.555,3.041-.745,4.538l.369.295c.849-.657,1.731-1.278,2.52-2,.646-1.261-1.174-1.977-1.63-.518l.278.209.618-.707Z" fill="#fff"/><path d="M119.551,114.136a2.986,2.986,0,0,0-3.931.081l1.1,3.183,1.635-2.122c.417,1.141.829,2.269,1.274,3.484-1.045,0-1.419-1.672-2.678-.6.714,1.547.592,3.571,3.019,4.461l-3.631,1.151c-.028-3.677-1.424-6.754-3.33-9.895l5.69-2.055Z" fill="#fff"/><path d="M76.808,128.481c-.794-.185-1.865-.129-1.915-1.479a2.2,2.2,0,0,1,1.876-2.41,2.718,2.718,0,0,1,2.33,2.126C79.135,127.618,78.1,128.451,76.808,128.481Z" fill="#faaf29"/><path d="M81.982,124.679a1.262,1.262,0,0,1,1.4,1.383,2.57,2.57,0,0,1-2.076,2.482,1.991,1.991,0,0,1-1.837-1.964C79.473,125.508,80.407,124.7,81.982,124.679Z" fill="#faaf29"/><path d="M127.513,114.672c-1.188-.616-2.439-.446-2.127,1.164l.362.06.592-.942c.624.821-.33.927-.777,1.435-1.944-1.8.418-4.7,1.912-1.682Z"/></g></g></svg>